<?xml version="1.0" encoding="UTF-8"?>
<svg width="800" height="1320" xmlns="http://www.w3.org/2000/svg">
  <defs>
    <style>
      .title { font-family: 'Arial', sans-serif; font-size: 24px; font-weight: bold; fill: #2c3e50; }
      .section { font-family: 'Arial', sans-serif; font-size: 14px; font-weight: bold; fill: #34495e; }
      .code { font-family: 'Courier New', monospace; font-size: 12px; font-weight: bold; fill: #e74c3c; }
      .description { font-family: 'Arial', sans-serif; font-size: 10px; fill: #2c3e50; }
      .header-bg { fill: #ecf0f1; stroke: #bdc3c7; stroke-width: 2; }
      .cell-bg { fill: #ffffff; stroke: #ecf0f1; stroke-width: 1; }
      .section-bg { fill: #f8f9fa; stroke: #dee2e6; stroke-width: 1; }
    </style>
  </defs>
  
  <!-- Header -->
  <rect x="20" y="20" width="760" height="100" class="header-bg" rx="10"/>
  <text x="400" y="60" text-anchor="middle" class="title">People & Culture</text>
  <text x="400" y="85" text-anchor="middle" class="section">PromptKit Reference Card</text>
  <text x="400" y="105" text-anchor="middle" class="description">Use codes with : followed by your content</text>
  
  <!-- Content Grid -->
  <rect x="30" y="140" width="740" height="25" class="section-bg" rx="5"/>
  <text x="40" y="157" class="section">Human Resources</text>
  <rect x="30" y="175" width="236" height="65" class="cell-bg" rx="3"/>
  <text x="35" y="190" class="code">hr.pol:</text>
  <text x="35" y="205" class="description">Develop comprehensive HR policies with implemen...</text>
  <rect x="276" y="175" width="236" height="65" class="cell-bg" rx="3"/>
  <text x="281" y="190" class="code">hr.onb:</text>
  <text x="281" y="205" class="description">Create structured onboarding program with check...</text>
  <rect x="522" y="175" width="236" height="65" class="cell-bg" rx="3"/>
  <text x="527" y="190" class="code">hr.off:</text>
  <text x="527" y="205" class="description">Draft professional offer letter template with t...</text>
  <rect x="30" y="245" width="236" height="65" class="cell-bg" rx="3"/>
  <text x="35" y="260" class="code">hr.hnd:</text>
  <text x="35" y="275" class="description">Prepare detailed employee handbook sections wit...</text>
  <rect x="276" y="245" width="236" height="65" class="cell-bg" rx="3"/>
  <text x="281" y="260" class="code">hr.com:</text>
  <text x="281" y="275" class="description">Write clear internal communications with approp...</text>
  <rect x="522" y="245" width="236" height="65" class="cell-bg" rx="3"/>
  <text x="527" y="260" class="code">hr.cul:</text>
  <text x="527" y="275" class="description">Design workplace culture improvement activities...</text>
  <rect x="30" y="315" width="236" height="65" class="cell-bg" rx="3"/>
  <text x="35" y="330" class="code">hr.per:</text>
  <text x="35" y="345" class="description">Establish performance review process with evalu...</text>
  <rect x="276" y="315" width="236" height="65" class="cell-bg" rx="3"/>
  <text x="281" y="330" class="code">hr.dis:</text>
  <text x="281" y="345" class="description">Create disciplinary action procedures with prog...</text>
  <rect x="522" y="315" width="236" height="65" class="cell-bg" rx="3"/>
  <text x="527" y="330" class="code">hr.exit:</text>
  <text x="527" y="345" class="description">Develop exit interview process with questions a...</text>
  <rect x="30" y="385" width="236" height="65" class="cell-bg" rx="3"/>
  <text x="35" y="400" class="code">hr.ben:</text>
  <text x="35" y="415" class="description">Design benefits administration system with enro...</text>
  <rect x="276" y="385" width="236" height="65" class="cell-bg" rx="3"/>
  <text x="281" y="400" class="code">hr.pay:</text>
  <text x="281" y="415" class="description">Create payroll structure guidance with compensa...</text>
  <rect x="30" y="475" width="740" height="25" class="section-bg" rx="5"/>
  <text x="40" y="492" class="section">Recruitment / Talent Acquisition</text>
  <rect x="30" y="510" width="236" height="65" class="cell-bg" rx="3"/>
  <text x="35" y="525" class="code">rc.jd:</text>
  <text x="35" y="540" class="description">Create detailed job description with responsibi...</text>
  <rect x="276" y="510" width="236" height="65" class="cell-bg" rx="3"/>
  <text x="281" y="525" class="code">rc.req:</text>
  <text x="281" y="540" class="description">Develop comprehensive requisition request with ...</text>
  <rect x="522" y="510" width="236" height="65" class="cell-bg" rx="3"/>
  <text x="527" y="525" class="code">rc.scr:</text>
  <text x="527" y="540" class="description">Design candidate screening questionnaire with e...</text>
  <rect x="30" y="580" width="236" height="65" class="cell-bg" rx="3"/>
  <text x="35" y="595" class="code">rc.int:</text>
  <text x="35" y="610" class="description">Generate structured interview questions with be...</text>
  <rect x="276" y="580" width="236" height="65" class="cell-bg" rx="3"/>
  <text x="281" y="595" class="code">rc.sel:</text>
  <text x="281" y="610" class="description">Establish candidate selection criteria with sco...</text>
  <rect x="522" y="580" width="236" height="65" class="cell-bg" rx="3"/>
  <text x="527" y="595" class="code">rc.rjt:</text>
  <text x="527" y="610" class="description">Draft professional rejection communication with...</text>
  <rect x="30" y="650" width="236" height="65" class="cell-bg" rx="3"/>
  <text x="35" y="665" class="code">rc.bg:</text>
  <text x="35" y="680" class="description">Create background check process with verificati...</text>
  <rect x="276" y="650" width="236" height="65" class="cell-bg" rx="3"/>
  <text x="281" y="665" class="code">rc.ref:</text>
  <text x="281" y="680" class="description">Develop reference check procedures with questio...</text>
  <rect x="522" y="650" width="236" height="65" class="cell-bg" rx="3"/>
  <text x="527" y="665" class="code">rc.neg:</text>
  <text x="527" y="680" class="description">Provide salary negotiation guidance with market...</text>
  <rect x="30" y="720" width="236" height="65" class="cell-bg" rx="3"/>
  <text x="35" y="735" class="code">rc.ret:</text>
  <text x="35" y="750" class="description">Design talent retention strategy with engagemen...</text>
  <rect x="30" y="810" width="740" height="25" class="section-bg" rx="5"/>
  <text x="40" y="827" class="section">Learning & Development</text>
  <rect x="30" y="845" width="236" height="65" class="cell-bg" rx="3"/>
  <text x="35" y="860" class="code">ld.trn:</text>
  <text x="35" y="875" class="description">Develop comprehensive training program with obj...</text>
  <rect x="276" y="845" width="236" height="65" class="cell-bg" rx="3"/>
  <text x="281" y="860" class="code">ld.qz:</text>
  <text x="281" y="875" class="description">Create knowledge assessment quiz with questions...</text>
  <rect x="522" y="845" width="236" height="65" class="cell-bg" rx="3"/>
  <text x="527" y="860" class="code">ld.crs:</text>
  <text x="527" y="875" class="description">Design course structure with modules, learning ...</text>
  <rect x="30" y="915" width="236" height="65" class="cell-bg" rx="3"/>
  <text x="35" y="930" class="code">ld.mat:</text>
  <text x="35" y="945" class="description">Develop training materials with presentations, ...</text>
  <rect x="276" y="915" width="236" height="65" class="cell-bg" rx="3"/>
  <text x="281" y="930" class="code">ld.fbk:</text>
  <text x="281" y="945" class="description">Create training evaluation form with feedback c...</text>
  <rect x="522" y="915" width="236" height="65" class="cell-bg" rx="3"/>
  <text x="527" y="930" class="code">ld.ass:</text>
  <text x="527" y="945" class="description">Design skills assessment framework with evaluat...</text>
  <rect x="30" y="985" width="236" height="65" class="cell-bg" rx="3"/>
  <text x="35" y="1000" class="code">ld.ment:</text>
  <text x="35" y="1015" class="description">Establish mentorship program with matching, gui...</text>
  <rect x="276" y="985" width="236" height="65" class="cell-bg" rx="3"/>
  <text x="281" y="1000" class="code">ld.car:</text>
  <text x="281" y="1015" class="description">Create career development planning process with...</text>
  <rect x="522" y="985" width="236" height="65" class="cell-bg" rx="3"/>
  <text x="527" y="1000" class="code">ld.cert:</text>
  <text x="527" y="1015" class="description">Design certification tracking system with requi...</text>
  <rect x="30" y="1075" width="740" height="25" class="section-bg" rx="5"/>
  <text x="40" y="1092" class="section">Administration / Office Management</text>
  <rect x="30" y="1110" width="236" height="65" class="cell-bg" rx="3"/>
  <text x="35" y="1125" class="code">ad.sch:</text>
  <text x="35" y="1140" class="description">Create comprehensive office schedule with meeti...</text>
  <rect x="276" y="1110" width="236" height="65" class="cell-bg" rx="3"/>
  <text x="281" y="1125" class="code">ad.min:</text>
  <text x="281" y="1140" class="description">Generate detailed meeting minutes with action i...</text>
  <rect x="522" y="1110" width="236" height="65" class="cell-bg" rx="3"/>
  <text x="527" y="1125" class="code">ad.ntc:</text>
  <text x="527" y="1140" class="description">Write clear office communications with announce...</text>
  <rect x="30" y="1180" width="236" height="65" class="cell-bg" rx="3"/>
  <text x="35" y="1195" class="code">ad.inv:</text>
  <text x="35" y="1210" class="description">Develop office inventory management system with...</text>
  <rect x="276" y="1180" width="236" height="65" class="cell-bg" rx="3"/>
  <text x="281" y="1195" class="code">ad.fac:</text>
  <text x="281" y="1210" class="description">Document facilities management procedures with ...</text>
  <rect x="522" y="1180" width="236" height="65" class="cell-bg" rx="3"/>
  <text x="527" y="1195" class="code">ad.bud:</text>
  <text x="527" y="1210" class="description">Create office budget planning process with allo...</text>
  <rect x="30" y="1250" width="236" height="65" class="cell-bg" rx="3"/>
  <text x="35" y="1265" class="code">ad.sup:</text>
  <text x="35" y="1280" class="description">Establish supplier management system with evalu...</text>
  <rect x="276" y="1250" width="236" height="65" class="cell-bg" rx="3"/>
  <text x="281" y="1265" class="code">ad.sec:</text>
  <text x="281" y="1280" class="description">Develop security procedures with access control...</text>
  <rect x="522" y="1250" width="236" height="65" class="cell-bg" rx="3"/>
  <text x="527" y="1265" class="code">ad.eme:</text>
  <text x="527" y="1280" class="description">Create emergency response procedures with evacu...</text>
  <rect x="30" y="1320" width="236" height="65" class="cell-bg" rx="3"/>
  <text x="35" y="1335" class="code">hr.onb+ld.trn:</text>
  <text x="35" y="1350" class="description">Onboarding plan + training</text>
  <rect x="276" y="1320" width="236" height="65" class="cell-bg" rx="3"/>
  <text x="281" y="1335" class="code">rc.jd+rc.int:</text>
  <text x="281" y="1350" class="description">Job description + interview questions</text>
  <rect x="522" y="1320" width="236" height="65" class="cell-bg" rx="3"/>
  <text x="527" y="1335" class="code">ld.ass+ld.car:</text>
  <text x="527" y="1350" class="description">Skills assessment + career development</text>

  <!-- Footer -->
  <text x="400" y="1300" text-anchor="middle" class="description">
    Generated from: .\08-Advance\people and culture\people_and_culture.md | PromptKit - AI Prompt Shorthand System
  </text>
</svg>