<?xml version="1.0" encoding="UTF-8"?>
<svg width="800" height="2200" xmlns="http://www.w3.org/2000/svg">
  <defs>
    <style>
      .title { font-family: 'Arial', sans-serif; font-size: 24px; font-weight: bold; fill: #2c3e50; }
      .section { font-family: 'Arial', sans-serif; font-size: 14px; font-weight: bold; fill: #34495e; }
      .code { font-family: 'Courier New', monospace; font-size: 12px; font-weight: bold; fill: #e74c3c; }
      .description { font-family: 'Arial', sans-serif; font-size: 10px; fill: #2c3e50; }
      .header-bg { fill: #ecf0f1; stroke: #bdc3c7; stroke-width: 2; }
      .cell-bg { fill: #ffffff; stroke: #ecf0f1; stroke-width: 1; }
      .section-bg { fill: #f8f9fa; stroke: #dee2e6; stroke-width: 1; }
    </style>
  </defs>
  
  <!-- Header -->
  <rect x="20" y="20" width="760" height="100" class="header-bg" rx="10"/>
  <text x="400" y="60" text-anchor="middle" class="title">Commercial & Client Facing</text>
  <text x="400" y="85" text-anchor="middle" class="section">PromptKit Reference Card</text>
  <text x="400" y="105" text-anchor="middle" class="description">Use codes with : followed by your content</text>
  
  <!-- Content Grid -->
  <rect x="30" y="140" width="740" height="25" class="section-bg" rx="5"/>
  <text x="40" y="157" class="section">Sales</text>
  <rect x="30" y="175" width="236" height="65" class="cell-bg" rx="3"/>
  <text x="35" y="190" class="code">sl.le:</text>
  <text x="35" y="205" class="description">Develop lead generation strategy with channels,...</text>
  <rect x="276" y="175" width="236" height="65" class="cell-bg" rx="3"/>
  <text x="281" y="190" class="code">sl.qua:</text>
  <text x="281" y="205" class="description">Create lead qualification process with criteria...</text>
  <rect x="522" y="175" width="236" height="65" class="cell-bg" rx="3"/>
  <text x="527" y="190" class="code">sl.pit:</text>
  <text x="527" y="205" class="description">Design sales pitch with value proposition, bene...</text>
  <rect x="30" y="245" width="236" height="65" class="cell-bg" rx="3"/>
  <text x="35" y="260" class="code">sl.pro:</text>
  <text x="35" y="275" class="description">Create comprehensive sales proposal with pricin...</text>
  <rect x="276" y="245" width="236" height="65" class="cell-bg" rx="3"/>
  <text x="281" y="260" class="code">sl.neg:</text>
  <text x="281" y="275" class="description">Establish sales negotiation framework with stra...</text>
  <rect x="522" y="245" width="236" height="65" class="cell-bg" rx="3"/>
  <text x="527" y="260" class="code">sl.clo:</text>
  <text x="527" y="275" class="description">Develop sales closing techniques with objection...</text>
  <rect x="30" y="315" width="236" height="65" class="cell-bg" rx="3"/>
  <text x="35" y="330" class="code">sl.rel:</text>
  <text x="35" y="345" class="description">Design relationship building strategy with enga...</text>
  <rect x="276" y="315" width="236" height="65" class="cell-bg" rx="3"/>
  <text x="281" y="330" class="code">sl.obj:</text>
  <text x="281" y="345" class="description">Create sales objection handling playbook with r...</text>
  <rect x="522" y="315" width="236" height="65" class="cell-bg" rx="3"/>
  <text x="527" y="330" class="code">sl.ter:</text>
  <text x="527" y="345" class="description">Establish territory management with segmentatio...</text>
  <rect x="30" y="385" width="236" height="65" class="cell-bg" rx="3"/>
  <text x="35" y="400" class="code">sl.quo:</text>
  <text x="35" y="415" class="description">Generate professional quotes with pricing, term...</text>
  <rect x="276" y="385" width="236" height="65" class="cell-bg" rx="3"/>
  <text x="281" y="400" class="code">sl.crm:</text>
  <text x="281" y="415" class="description">CRM management</text>
  <rect x="522" y="385" width="236" height="65" class="cell-bg" rx="3"/>
  <text x="527" y="400" class="code">sl.fore:</text>
  <text x="527" y="415" class="description">Sales forecasting</text>
  <rect x="30" y="455" width="236" height="65" class="cell-bg" rx="3"/>
  <text x="35" y="470" class="code">sl.pipe:</text>
  <text x="35" y="485" class="description">Pipeline management</text>
  <rect x="276" y="455" width="236" height="65" class="cell-bg" rx="3"/>
  <text x="281" y="470" class="code">sl.targ:</text>
  <text x="281" y="485" class="description">Target setting</text>
  <rect x="522" y="455" width="236" height="65" class="cell-bg" rx="3"/>
  <text x="527" y="470" class="code">sl.comp:</text>
  <text x="527" y="485" class="description">Competitive analysis</text>
  <rect x="30" y="525" width="236" height="65" class="cell-bg" rx="3"/>
  <text x="35" y="540" class="code">sl.dem:</text>
  <text x="35" y="555" class="description">Demo preparation</text>
  <rect x="30" y="615" width="740" height="25" class="section-bg" rx="5"/>
  <text x="40" y="632" class="section">Business Development</text>
  <rect x="30" y="650" width="236" height="65" class="cell-bg" rx="3"/>
  <text x="35" y="665" class="code">bd.str:</text>
  <text x="35" y="680" class="description">Business development strategy</text>
  <rect x="276" y="650" width="236" height="65" class="cell-bg" rx="3"/>
  <text x="281" y="665" class="code">bd.par:</text>
  <text x="281" y="680" class="description">Partnership development</text>
  <rect x="522" y="650" width="236" height="65" class="cell-bg" rx="3"/>
  <text x="527" y="665" class="code">bd.all:</text>
  <text x="527" y="680" class="description">Alliance building</text>
  <rect x="30" y="720" width="236" height="65" class="cell-bg" rx="3"/>
  <text x="35" y="735" class="code">bd.opp:</text>
  <text x="35" y="750" class="description">Opportunity identification</text>
  <rect x="276" y="720" width="236" height="65" class="cell-bg" rx="3"/>
  <text x="281" y="735" class="code">bd.mark:</text>
  <text x="281" y="750" class="description">Market entry strategy</text>
  <rect x="522" y="720" width="236" height="65" class="cell-bg" rx="3"/>
  <text x="527" y="735" class="code">bd.exp:</text>
  <text x="527" y="750" class="description">Expansion planning</text>
  <rect x="30" y="790" width="236" height="65" class="cell-bg" rx="3"/>
  <text x="35" y="805" class="code">bd.cha:</text>
  <text x="35" y="820" class="description">Channel development</text>
  <rect x="276" y="790" width="236" height="65" class="cell-bg" rx="3"/>
  <text x="281" y="805" class="code">bd.joi:</text>
  <text x="281" y="820" class="description">Joint venture planning</text>
  <rect x="522" y="790" width="236" height="65" class="cell-bg" rx="3"/>
  <text x="527" y="805" class="code">bd.net:</text>
  <text x="527" y="820" class="description">Networking strategy</text>
  <rect x="30" y="860" width="236" height="65" class="cell-bg" rx="3"/>
  <text x="35" y="875" class="code">bd.tre:</text>
  <text x="35" y="890" class="description">Trend analysis</text>
  <rect x="276" y="860" width="236" height="65" class="cell-bg" rx="3"/>
  <text x="281" y="875" class="code">bd.res:</text>
  <text x="281" y="890" class="description">Research and analysis</text>
  <rect x="522" y="860" width="236" height="65" class="cell-bg" rx="3"/>
  <text x="527" y="875" class="code">bd.val:</text>
  <text x="527" y="890" class="description">Value proposition</text>
  <rect x="30" y="930" width="236" height="65" class="cell-bg" rx="3"/>
  <text x="35" y="945" class="code">bd.pit:</text>
  <text x="35" y="960" class="description">Pitch deck creation</text>
  <rect x="276" y="930" width="236" height="65" class="cell-bg" rx="3"/>
  <text x="281" y="945" class="code">bd.met:</text>
  <text x="281" y="960" class="description">Metrics and KPIs</text>
  <rect x="522" y="930" width="236" height="65" class="cell-bg" rx="3"/>
  <text x="527" y="945" class="code">bd.rol:</text>
  <text x="527" y="960" class="description">Role definition</text>
  <rect x="30" y="1000" width="236" height="65" class="cell-bg" rx="3"/>
  <text x="35" y="1015" class="code">bd.cal:</text>
  <text x="35" y="1030" class="description">Calendar management</text>
  <rect x="30" y="1090" width="740" height="25" class="section-bg" rx="5"/>
  <text x="40" y="1107" class="section">Marketing</text>
  <rect x="30" y="1125" width="236" height="65" class="cell-bg" rx="3"/>
  <text x="35" y="1140" class="code">mk.cam:</text>
  <text x="35" y="1155" class="description">Design comprehensive marketing campaign with ob...</text>
  <rect x="276" y="1125" width="236" height="65" class="cell-bg" rx="3"/>
  <text x="281" y="1140" class="code">mk.brd:</text>
  <text x="281" y="1155" class="description">Develop brand positioning strategy with messagi...</text>
  <rect x="522" y="1125" width="236" height="65" class="cell-bg" rx="3"/>
  <text x="527" y="1140" class="code">mk.con:</text>
  <text x="527" y="1155" class="description">Create content marketing strategy with creation...</text>
  <rect x="30" y="1195" width="236" height="65" class="cell-bg" rx="3"/>
  <text x="35" y="1210" class="code">mk.soc:</text>
  <text x="35" y="1225" class="description">Establish social media strategy with platforms,...</text>
  <rect x="276" y="1195" width="236" height="65" class="cell-bg" rx="3"/>
  <text x="281" y="1210" class="code">mk.seo:</text>
  <text x="281" y="1225" class="description">Develop SEO strategy with keywords, optimizatio...</text>
  <rect x="522" y="1195" width="236" height="65" class="cell-bg" rx="3"/>
  <text x="527" y="1210" class="code">mk.ema:</text>
  <text x="527" y="1225" class="description">Design email marketing campaign with segmentati...</text>
  <rect x="30" y="1265" width="236" height="65" class="cell-bg" rx="3"/>
  <text x="35" y="1280" class="code">mk.adv:</text>
  <text x="35" y="1295" class="description">Create advertising strategy with channels, targ...</text>
  <rect x="276" y="1265" width="236" height="65" class="cell-bg" rx="3"/>
  <text x="281" y="1280" class="code">mk.pr:</text>
  <text x="281" y="1295" class="description">Establish public relations strategy with media ...</text>
  <rect x="522" y="1265" width="236" height="65" class="cell-bg" rx="3"/>
  <text x="527" y="1280" class="code">mk.eve:</text>
  <text x="527" y="1295" class="description">Design event marketing strategy with planning, ...</text>
  <rect x="30" y="1335" width="236" height="65" class="cell-bg" rx="3"/>
  <text x="35" y="1350" class="code">mk.ana:</text>
  <text x="35" y="1365" class="description">Develop marketing analytics framework with trac...</text>
  <rect x="276" y="1335" width="236" height="65" class="cell-bg" rx="3"/>
  <text x="281" y="1350" class="code">mk.per:</text>
  <text x="281" y="1365" class="description">Performance marketing</text>
  <rect x="522" y="1335" width="236" height="65" class="cell-bg" rx="3"/>
  <text x="527" y="1350" class="code">mk.inf:</text>
  <text x="527" y="1365" class="description">Influencer marketing</text>
  <rect x="30" y="1405" width="236" height="65" class="cell-bg" rx="3"/>
  <text x="35" y="1420" class="code">mk.bud:</text>
  <text x="35" y="1435" class="description">Marketing budget</text>
  <rect x="276" y="1405" width="236" height="65" class="cell-bg" rx="3"/>
  <text x="281" y="1420" class="code">mk.roi:</text>
  <text x="281" y="1435" class="description">ROI analysis</text>
  <rect x="522" y="1405" width="236" height="65" class="cell-bg" rx="3"/>
  <text x="527" y="1420" class="code">mk.tes:</text>
  <text x="527" y="1435" class="description">A/B testing</text>
  <rect x="30" y="1475" width="236" height="65" class="cell-bg" rx="3"/>
  <text x="35" y="1490" class="code">mk.pers:</text>
  <text x="35" y="1505" class="description">Personalization</text>
  <rect x="276" y="1475" width="236" height="65" class="cell-bg" rx="3"/>
  <text x="281" y="1490" class="code">mk.aut:</text>
  <text x="281" y="1505" class="description">Marketing automation</text>
  <rect x="522" y="1475" width="236" height="65" class="cell-bg" rx="3"/>
  <text x="527" y="1490" class="code">mk.cus:</text>
  <text x="527" y="1505" class="description">Customer journey mapping</text>
  <rect x="30" y="1545" width="236" height="65" class="cell-bg" rx="3"/>
  <text x="35" y="1560" class="code">mk.ret:</text>
  <text x="35" y="1575" class="description">Retargeting strategy</text>
  <rect x="30" y="1635" width="740" height="25" class="section-bg" rx="5"/>
  <text x="40" y="1652" class="section">Customer Support / Client Success</text>
  <rect x="30" y="1670" width="236" height="65" class="cell-bg" rx="3"/>
  <text x="35" y="1685" class="code">cs.tic:</text>
  <text x="35" y="1700" class="description">Ticket management</text>
  <rect x="276" y="1670" width="236" height="65" class="cell-bg" rx="3"/>
  <text x="281" y="1685" class="code">cs.faq:</text>
  <text x="281" y="1700" class="description">FAQ creation</text>
  <rect x="522" y="1670" width="236" height="65" class="cell-bg" rx="3"/>
  <text x="527" y="1685" class="code">cs.kno:</text>
  <text x="527" y="1700" class="description">Knowledge base</text>
  <rect x="30" y="1740" width="236" height="65" class="cell-bg" rx="3"/>
  <text x="35" y="1755" class="code">cs.cha:</text>
  <text x="35" y="1770" class="description">Chat support</text>
  <rect x="276" y="1740" width="236" height="65" class="cell-bg" rx="3"/>
  <text x="281" y="1755" class="code">cs.ret:</text>
  <text x="281" y="1770" class="description">Retention strategy</text>
  <rect x="522" y="1740" width="236" height="65" class="cell-bg" rx="3"/>
  <text x="527" y="1755" class="code">cs.ups:</text>
  <text x="527" y="1770" class="description">Upselling techniques</text>
  <rect x="30" y="1810" width="236" height="65" class="cell-bg" rx="3"/>
  <text x="35" y="1825" class="code">cs.fee:</text>
  <text x="35" y="1840" class="description">Feedback collection</text>
  <rect x="276" y="1810" width="236" height="65" class="cell-bg" rx="3"/>
  <text x="281" y="1825" class="code">cs.sat:</text>
  <text x="281" y="1840" class="description">Satisfaction survey</text>
  <rect x="522" y="1810" width="236" height="65" class="cell-bg" rx="3"/>
  <text x="527" y="1825" class="code">cs.onb:</text>
  <text x="527" y="1840" class="description">Customer onboarding</text>
  <rect x="30" y="1880" width="236" height="65" class="cell-bg" rx="3"/>
  <text x="35" y="1895" class="code">cs.suc:</text>
  <text x="35" y="1910" class="description">Success metrics</text>
  <rect x="276" y="1880" width="236" height="65" class="cell-bg" rx="3"/>
  <text x="281" y="1895" class="code">cs.esc:</text>
  <text x="281" y="1910" class="description">Escalation procedures</text>
  <rect x="522" y="1880" width="236" height="65" class="cell-bg" rx="3"/>
  <text x="527" y="1895" class="code">cs.tra:</text>
  <text x="527" y="1910" class="description">Training materials</text>
  <rect x="30" y="1950" width="236" height="65" class="cell-bg" rx="3"/>
  <text x="35" y="1965" class="code">cs.sla:</text>
  <text x="35" y="1980" class="description">SLA management</text>
  <rect x="276" y="1950" width="236" height="65" class="cell-bg" rx="3"/>
  <text x="281" y="1965" class="code">cs.lev:</text>
  <text x="281" y="1980" class="description">Support level management</text>
  <rect x="522" y="1950" width="236" height="65" class="cell-bg" rx="3"/>
  <text x="527" y="1965" class="code">cs.que:</text>
  <text x="527" y="1980" class="description">Queue management</text>
  <rect x="30" y="2020" width="236" height="65" class="cell-bg" rx="3"/>
  <text x="35" y="2035" class="code">cs.met:</text>
  <text x="35" y="2050" class="description">Support metrics</text>
  <rect x="276" y="2020" width="236" height="65" class="cell-bg" rx="3"/>
  <text x="281" y="2035" class="code">cs.qua:</text>
  <text x="281" y="2050" class="description">Quality assurance</text>
  <rect x="522" y="2020" width="236" height="65" class="cell-bg" rx="3"/>
  <text x="527" y="2035" class="code">cs.tea:</text>
  <text x="527" y="2050" class="description">Team management</text>
  <rect x="30" y="2090" width="236" height="65" class="cell-bg" rx="3"/>
  <text x="35" y="2105" class="code">cs.tool:</text>
  <text x="35" y="2120" class="description">Tool selection</text>
  <rect x="276" y="2090" width="236" height="65" class="cell-bg" rx="3"/>
  <text x="281" y="2105" class="code">sl.pit+sl.pro:</text>
  <text x="281" y="2120" class="description">Sales pitch + proposal</text>
  <rect x="522" y="2090" width="236" height="65" class="cell-bg" rx="3"/>
  <text x="527" y="2105" class="code">mk.cam+mk.ana:</text>
  <text x="527" y="2120" class="description">Campaign planning + analytics</text>
  <rect x="30" y="2160" width="236" height="65" class="cell-bg" rx="3"/>
  <text x="35" y="2175" class="code">cs.onb+cs.suc:</text>
  <text x="35" y="2190" class="description">Customer onboarding + success metrics</text>
  <rect x="276" y="2160" width="236" height="65" class="cell-bg" rx="3"/>
  <text x="281" y="2175" class="code">bd.str+bd.par:</text>
  <text x="281" y="2190" class="description">Business development strategy + partnerships</text>

  <!-- Footer -->
  <text x="400" y="2180" text-anchor="middle" class="description">
    Generated from: .\08-Advance\Commercial & Client Facing\commercial_client.md | PromptKit - AI Prompt Shorthand System
  </text>
</svg>