<?xml version="1.0" encoding="UTF-8"?>
<svg width="800" height="760" xmlns="http://www.w3.org/2000/svg">
  <defs>
    <style>
      .title { font-family: 'Arial', sans-serif; font-size: 24px; font-weight: bold; fill: #2c3e50; }
      .section { font-family: 'Arial', sans-serif; font-size: 14px; font-weight: bold; fill: #34495e; }
      .code { font-family: 'Courier New', monospace; font-size: 12px; font-weight: bold; fill: #e74c3c; }
      .description { font-family: 'Arial', sans-serif; font-size: 10px; fill: #2c3e50; }
      .header-bg { fill: #ecf0f1; stroke: #bdc3c7; stroke-width: 2; }
      .cell-bg { fill: #ffffff; stroke: #ecf0f1; stroke-width: 1; }
      .section-bg { fill: #f8f9fa; stroke: #dee2e6; stroke-width: 1; }
    </style>
  </defs>
  
  <!-- Header -->
  <rect x="20" y="20" width="760" height="100" class="header-bg" rx="10"/>
  <text x="400" y="60" text-anchor="middle" class="title">Health & Safety Dictionary</text>
  <text x="400" y="85" text-anchor="middle" class="section">PromptKit Reference Card</text>
  <text x="400" y="105" text-anchor="middle" class="description">Use codes with : followed by your content</text>
  
  <!-- Content Grid -->
  <rect x="30" y="140" width="740" height="25" class="section-bg" rx="5"/>
  <text x="40" y="157" class="section">Health & Safety / EHS</text>
  <rect x="30" y="175" width="236" height="65" class="cell-bg" rx="3"/>
  <text x="35" y="190" class="code">hs.saf:</text>
  <text x="35" y="205" class="description">Establish safety protocols with procedures, tra...</text>
  <rect x="276" y="175" width="236" height="65" class="cell-bg" rx="3"/>
  <text x="281" y="190" class="code">hs.hea:</text>
  <text x="281" y="205" class="description">Create health management with monitoring, preve...</text>
  <rect x="522" y="175" width="236" height="65" class="cell-bg" rx="3"/>
  <text x="527" y="190" class="code">hs.env:</text>
  <text x="527" y="205" class="description">Design environmental management with sustainabi...</text>
  <rect x="30" y="245" width="236" height="65" class="cell-bg" rx="3"/>
  <text x="35" y="260" class="code">hs.risk:</text>
  <text x="35" y="275" class="description">Identify health and safety risks with assessmen...</text>
  <rect x="276" y="245" width="236" height="65" class="cell-bg" rx="3"/>
  <text x="281" y="260" class="code">hs.inc:</text>
  <text x="281" y="275" class="description">Develop incident response with reporting, inves...</text>
  <rect x="522" y="245" width="236" height="65" class="cell-bg" rx="3"/>
  <text x="527" y="260" class="code">hs.tra:</text>
  <text x="527" y="275" class="description">Create safety training with programs, certifica...</text>
  <rect x="30" y="315" width="236" height="65" class="cell-bg" rx="3"/>
  <text x="35" y="330" class="code">hs.aud:</text>
  <text x="35" y="345" class="description">Establish safety audit framework with inspectio...</text>
  <rect x="276" y="315" width="236" height="65" class="cell-bg" rx="3"/>
  <text x="281" y="330" class="code">hs.ppe:</text>
  <text x="281" y="345" class="description">Design personal protective equipment with selec...</text>
  <rect x="522" y="315" width="236" height="65" class="cell-bg" rx="3"/>
  <text x="527" y="330" class="code">hs.eme:</text>
  <text x="527" y="345" class="description">Create emergency procedures with response, evac...</text>
  <rect x="30" y="385" width="236" height="65" class="cell-bg" rx="3"/>
  <text x="35" y="400" class="code">hs.mon:</text>
  <text x="35" y="415" class="description">Establish monitoring systems with measurement a...</text>
  <rect x="276" y="385" width="236" height="65" class="cell-bg" rx="3"/>
  <text x="281" y="400" class="code">hs.com:</text>
  <text x="281" y="415" class="description">Ensure compliance with regulations, standards, ...</text>
  <rect x="522" y="385" width="236" height="65" class="cell-bg" rx="3"/>
  <text x="527" y="400" class="code">hs.impro:</text>
  <text x="527" y="415" class="description">Design continuous improvement with metrics, ana...</text>
  <rect x="30" y="455" width="236" height="65" class="cell-bg" rx="3"/>
  <text x="35" y="470" class="code">hs.bud:</text>
  <text x="35" y="485" class="description">Create health & safety budget planning with all...</text>
  <rect x="276" y="455" width="236" height="65" class="cell-bg" rx="3"/>
  <text x="281" y="470" class="code">hs.team:</text>
  <text x="281" y="485" class="description">Design safety team management with roles, train...</text>
  <rect x="522" y="455" width="236" height="65" class="cell-bg" rx="3"/>
  <text x="527" y="470" class="code">hs.equ:</text>
  <text x="527" y="485" class="description">Establish safety equipment management with proc...</text>
  <rect x="30" y="525" width="236" height="65" class="cell-bg" rx="3"/>
  <text x="35" y="540" class="code">hs.data:</text>
  <text x="35" y="555" class="description">Create safety data management with collection, ...</text>
  <rect x="276" y="525" width="236" height="65" class="cell-bg" rx="3"/>
  <text x="281" y="540" class="code">hs.temp:</text>
  <text x="281" y="555" class="description">Design safety template management with standard...</text>
  <rect x="522" y="525" width="236" height="65" class="cell-bg" rx="3"/>
  <text x="527" y="540" class="code">hs.track:</text>
  <text x="527" y="555" class="description">Establish safety tracking system with metrics, ...</text>
  <rect x="30" y="595" width="236" height="65" class="cell-bg" rx="3"/>
  <text x="35" y="610" class="code">hs.saf+hs.tra:</text>
  <text x="35" y="625" class="description">Safety protocols + training programs</text>
  <rect x="276" y="595" width="236" height="65" class="cell-bg" rx="3"/>
  <text x="281" y="610" class="code">hs.risk+hs.inc:</text>
  <text x="281" y="625" class="description">Risk assessment + incident response</text>
  <rect x="522" y="595" width="236" height="65" class="cell-bg" rx="3"/>
  <text x="527" y="610" class="code">hs.aud+hs.com:</text>
  <text x="527" y="625" class="description">Safety audit + compliance</text>

  <!-- Footer -->
  <text x="400" y="740" text-anchor="middle" class="description">
    Generated from: .\05-Health & Safety\health_safety_ehs.md | PromptKit - AI Prompt Shorthand System
  </text>
</svg>