<?xml version="1.0" encoding="UTF-8"?>
<svg width="800" height="1000" xmlns="http://www.w3.org/2000/svg">
  <defs>
    <style>
      .title { font-family: 'Arial', sans-serif; font-size: 24px; font-weight: bold; fill: #2c3e50; }
      .section { font-family: 'Arial', sans-serif; font-size: 14px; font-weight: bold; fill: #34495e; }
      .code { font-family: 'Courier New', monospace; font-size: 12px; font-weight: bold; fill: #e74c3c; }
      .description { font-family: 'Arial', sans-serif; font-size: 10px; fill: #2c3e50; }
      .header-bg { fill: #ecf0f1; stroke: #bdc3c7; stroke-width: 2; }
      .cell-bg { fill: #ffffff; stroke: #ecf0f1; stroke-width: 1; }
      .section-bg { fill: #f8f9fa; stroke: #dee2e6; stroke-width: 1; }
    </style>
  </defs>
  
  <!-- Header -->
  <rect x="20" y="20" width="760" height="100" class="header-bg" rx="10"/>
  <text x="400" y="60" text-anchor="middle" class="title">QA Dictionary</text>
  <text x="400" y="85" text-anchor="middle" class="section">PromptKit Reference Card</text>
  <text x="400" y="105" text-anchor="middle" class="description">Use codes with : followed by your content</text>
  
  <!-- Content Grid -->
  <rect x="30" y="140" width="740" height="25" class="section-bg" rx="5"/>
  <text x="40" y="157" class="section">QA</text>
  <rect x="30" y="175" width="236" height="65" class="cell-bg" rx="3"/>
  <text x="35" y="190" class="code">qa:</text>
  <text x="35" y="205" class="description">Establish quality assurance processes and stand...</text>
  <rect x="276" y="175" width="236" height="65" class="cell-bg" rx="3"/>
  <text x="281" y="190" class="code">plan:</text>
  <text x="281" y="205" class="description">Create QA test plans and strategies</text>
  <rect x="522" y="175" width="236" height="65" class="cell-bg" rx="3"/>
  <text x="527" y="190" class="code">case:</text>
  <text x="527" y="205" class="description">Design detailed test cases with steps</text>
  <rect x="30" y="245" width="236" height="65" class="cell-bg" rx="3"/>
  <text x="35" y="260" class="code">bug:</text>
  <text x="35" y="275" class="description">Document and track bug reports</text>
  <rect x="276" y="245" width="236" height="65" class="cell-bg" rx="3"/>
  <text x="281" y="260" class="code">risk:</text>
  <text x="281" y="275" class="description">Identify and assess quality risks</text>
  <rect x="522" y="245" width="236" height="65" class="cell-bg" rx="3"/>
  <text x="527" y="260" class="code">metr:</text>
  <text x="527" y="275" class="description">Define quality metrics and KPIs</text>
  <rect x="30" y="315" width="236" height="65" class="cell-bg" rx="3"/>
  <text x="35" y="330" class="code">audit:</text>
  <text x="35" y="345" class="description">Conduct quality audits and reviews</text>
  <rect x="276" y="315" width="236" height="65" class="cell-bg" rx="3"/>
  <text x="281" y="330" class="code">stand:</text>
  <text x="281" y="345" class="description">Establish quality standards and guidelines</text>
  <rect x="522" y="315" width="236" height="65" class="cell-bg" rx="3"/>
  <text x="527" y="330" class="code">proc:</text>
  <text x="527" y="345" class="description">Define QA processes and workflows</text>
  <rect x="30" y="385" width="236" height="65" class="cell-bg" rx="3"/>
  <text x="35" y="400" class="code">tool:</text>
  <text x="35" y="415" class="description">Evaluate and select QA tools</text>
  <rect x="276" y="385" width="236" height="65" class="cell-bg" rx="3"/>
  <text x="281" y="400" class="code">train:</text>
  <text x="281" y="415" class="description">Develop QA training programs</text>
  <rect x="522" y="385" width="236" height="65" class="cell-bg" rx="3"/>
  <text x="527" y="400" class="code">repo:</text>
  <text x="527" y="415" class="description">Generate quality reports and analysis</text>
  <rect x="30" y="455" width="236" height="65" class="cell-bg" rx="3"/>
  <text x="35" y="470" class="code">valid:</text>
  <text x="35" y="485" class="description">Validate requirements and specifications</text>
  <rect x="276" y="455" width="236" height="65" class="cell-bg" rx="3"/>
  <text x="281" y="470" class="code">review:</text>
  <text x="281" y="485" class="description">Review code and documentation quality</text>
  <rect x="522" y="455" width="236" height="65" class="cell-bg" rx="3"/>
  <text x="527" y="470" class="code">compl:</text>
  <text x="527" y="485" class="description">Ensure compliance with standards</text>
  <rect x="30" y="525" width="236" height="65" class="cell-bg" rx="3"/>
  <text x="35" y="540" class="code">impr:</text>
  <text x="35" y="555" class="description">Implement quality improvements</text>
  <rect x="276" y="525" width="236" height="65" class="cell-bg" rx="3"/>
  <text x="281" y="540" class="code">mon:</text>
  <text x="281" y="555" class="description">Monitor quality metrics and trends</text>
  <rect x="522" y="525" width="236" height="65" class="cell-bg" rx="3"/>
  <text x="527" y="540" class="code">comm:</text>
  <text x="527" y="555" class="description">Communicate quality issues and status</text>
  <rect x="30" y="595" width="236" height="65" class="cell-bg" rx="3"/>
  <text x="35" y="610" class="code">coord:</text>
  <text x="35" y="625" class="description">Coordinate QA activities across teams</text>
  <rect x="276" y="595" width="236" height="65" class="cell-bg" rx="3"/>
  <text x="281" y="610" class="code">eval:</text>
  <text x="281" y="625" class="description">Evaluate product quality and readiness</text>
  <rect x="522" y="595" width="236" height="65" class="cell-bg" rx="3"/>
  <text x="527" y="610" class="code">spec:</text>
  <text x="527" y="625" class="description">Review requirements and specifications</text>
  <rect x="30" y="665" width="236" height="65" class="cell-bg" rx="3"/>
  <text x="35" y="680" class="code">sign:</text>
  <text x="35" y="695" class="description">Manage sign-off and approval processes</text>
  <rect x="276" y="665" width="236" height="65" class="cell-bg" rx="3"/>
  <text x="281" y="680" class="code">rel:</text>
  <text x="281" y="695" class="description">Assess release readiness and criteria</text>
  <rect x="522" y="665" width="236" height="65" class="cell-bg" rx="3"/>
  <text x="527" y="680" class="code">user:</text>
  <text x="527" y="695" class="description">Coordinate user acceptance testing</text>
  <rect x="30" y="735" width="236" height="65" class="cell-bg" rx="3"/>
  <text x="35" y="750" class="code">beta:</text>
  <text x="35" y="765" class="description">Manage beta testing and feedback</text>
  <rect x="276" y="735" width="236" height="65" class="cell-bg" rx="3"/>
  <text x="281" y="750" class="code">prod:</text>
  <text x="281" y="765" class="description">Validate production readiness</text>
  <rect x="522" y="735" width="236" height="65" class="cell-bg" rx="3"/>
  <text x="527" y="750" class="code">qa+plan:</text>
  <text x="527" y="765" class="description">QA processes + test planning</text>
  <rect x="30" y="805" width="236" height="65" class="cell-bg" rx="3"/>
  <text x="35" y="820" class="code">case+bug:</text>
  <text x="35" y="835" class="description">Test cases + bug tracking</text>
  <rect x="276" y="805" width="236" height="65" class="cell-bg" rx="3"/>
  <text x="281" y="820" class="code">risk+metr:</text>
  <text x="281" y="835" class="description">Risk assessment + metrics</text>

  <!-- Footer -->
  <text x="400" y="980" text-anchor="middle" class="description">
    Generated from: .\07-Software Development Pipeline\QA\qa.md | PromptKit - AI Prompt Shorthand System
  </text>
</svg>